<svg width="374" height="316" viewBox="0 0 374 316" fill="none" xmlns="http://www.w3.org/2000/svg">
<path d="M187.318 66.636C205.719 66.636 220.636 51.719 220.636 33.318C220.636 14.917 205.719 0 187.318 0C168.917 0 154 14.917 154 33.318C154 51.719 168.917 66.636 187.318 66.636Z" fill="#442F1C"/>
<path d="M223.189 86.8574C214.354 89.5184 201.521 92.3344 185.903 92.2474C170.967 92.1644 158.651 89.4554 150.025 86.8574C141.272 117.539 132.519 148.222 123.766 178.904C134.402 189.923 145.934 203.227 157.366 218.998C167.768 233.347 176.214 247.158 183.075 259.783V171.507C176.465 169.916 171.547 163.98 171.547 156.882C171.547 148.565 178.289 141.823 186.606 141.823C194.923 141.823 201.665 148.565 201.665 156.882C201.665 163.98 196.748 169.916 190.138 171.507V259.782C196.999 247.157 205.445 233.347 215.847 218.998C227.279 203.227 238.811 189.923 249.447 178.904C240.694 148.222 231.942 117.539 223.189 86.8574Z" fill="#442F1C"/>
<path d="M123.816 218.087C162.55 264.19 163.705 308.517 163.764 315.584C156.698 315.525 112.37 314.369 66.267 275.636C26.781 242.46 1.236 194.525 0 151.82C42.705 153.056 90.64 178.6 123.816 218.087Z" fill="#442F1C"/>
<path d="M249.393 218.087C210.659 264.19 209.504 308.517 209.445 315.584C216.511 315.525 260.839 314.369 306.942 275.636C346.429 242.461 371.974 194.525 373.21 151.82C330.505 153.056 282.57 178.601 249.394 218.088L249.393 218.087Z" fill="#442F1C"/>
</svg>
